HIERARCHY
ROOT Hips
{
	OFFSET 0.000000 0.000000 0.000000
	CHANNELS 6 Xposition Yposition Zposition Xrotation Yrotation Zrotation
	JOINT Chest
	{
		OFFSET 0.000000 0.009282 11.569106
		CHANNELS 6 Xposition Yposition Zposition Xrotation Yrotation Zrotation
		JOINT Chest2
		{
			OFFSET 0.000000 -0.016863 9.269641
			CHANNELS 6 Xposition Yposition Zposition Xrotation Yrotation Zrotation
			JOINT Chest3
			{
				OFFSET 0.000000 0.000000 8.374491
				CHANNELS 6 Xposition Yposition Zposition Xrotation Yrotation Zrotation
				JOINT Chest4
				{
					OFFSET 0.000000 0.000000 8.374493
					CHANNELS 6 Xposition Yposition Zposition Xrotation Yrotation Zrotation
					JOINT Neck
					{
						OFFSET 0.000000 -0.000001 12.152554
						CHANNELS 6 Xposition Yposition Zposition Xrotation Yrotation Zrotation
						JOINT Head
						{
							OFFSET 0.000000 -0.040100 7.802319
							CHANNELS 6 Xposition Yposition Zposition Xrotation Yrotation Zrotation
							End Site
							{
								OFFSET 0.000000 -0.020946 14.853096
							}
						}
					}
					JOINT RightCollar
					{
						OFFSET -2.894404 0.000000 6.791374
						CHANNELS 6 Xposition Yposition Zposition Xrotation Yrotation Zrotation
						JOINT RightShoulder
						{
							OFFSET -13.574684 0.000000 0.000000
							CHANNELS 6 Xposition Yposition Zposition Xrotation Yrotation Zrotation
							JOINT RightElbow
							{
								OFFSET -23.923903 0.000000 0.000000
								CHANNELS 6 Xposition Yposition Zposition Xrotation Yrotation Zrotation
								JOINT RightWrist
								{
									OFFSET -19.846718 -0.012765 0.000000
									CHANNELS 6 Xposition Yposition Zposition Xrotation Yrotation Zrotation
									End Site
									{
										OFFSET -14.973145 0.000000 0.000000
									}
								}
							}
						}
					}
					JOINT LeftCollar
					{
						OFFSET 2.894404 0.000000 6.791374
						CHANNELS 6 Xposition Yposition Zposition Xrotation Yrotation Zrotation
						JOINT LeftShoulder
						{
							OFFSET 13.574684 0.000000 0.000000
							CHANNELS 6 Xposition Yposition Zposition Xrotation Yrotation Zrotation
							JOINT LeftElbow
							{
								OFFSET 23.923903 0.000000 0.000000
								CHANNELS 6 Xposition Yposition Zposition Xrotation Yrotation Zrotation
								JOINT LeftWrist
								{
									OFFSET 19.846718 -0.012765 0.000000
									CHANNELS 6 Xposition Yposition Zposition Xrotation Yrotation Zrotation
									End Site
									{
										OFFSET 14.973145 0.000000 0.000000
									}
								}
							}
						}
					}
				}
			}
		}
	}
	JOINT RightHip
	{
		OFFSET -9.469263 -0.004642 0.045487
		CHANNELS 6 Xposition Yposition Zposition Xrotation Yrotation Zrotation
		JOINT RightKnee
		{
			OFFSET 0.000000 -0.002666 -40.478676
			CHANNELS 6 Xposition Yposition Zposition Xrotation Yrotation Zrotation
			JOINT RightAnkle
			{
				OFFSET 0.000000 -0.049110 -35.224068
				CHANNELS 6 Xposition Yposition Zposition Xrotation Yrotation Zrotation
				JOINT RightToe
				{
					OFFSET 0.000000 -12.539530 -6.151390
					CHANNELS 6 Xposition Yposition Zposition Xrotation Yrotation Zrotation
					End Site
					{
						OFFSET 0.000000 -5.044995 -1.291870
					}
				}
			}
		}
	}
	JOINT LeftHip
	{
		OFFSET 9.469263 -0.004642 0.045487
		CHANNELS 6 Xposition Yposition Zposition Xrotation Yrotation Zrotation
		JOINT LeftKnee
		{
			OFFSET 0.000000 -0.002666 -40.478676
			CHANNELS 6 Xposition Yposition Zposition Xrotation Yrotation Zrotation
			JOINT LeftAnkle
			{
				OFFSET 0.000000 -0.049110 -35.224068
				CHANNELS 6 Xposition Yposition Zposition Xrotation Yrotation Zrotation
				JOINT LeftToe
				{
					OFFSET 0.000000 -12.539530 -6.151390
					CHANNELS 6 Xposition Yposition Zposition Xrotation Yrotation Zrotation
					End Site
					{
						OFFSET 0.000000 -5.044995 -1.291870
					}
				}
			}
		}
	}
}
MOTION
Frames: 5
Frame Time: 0.016667
-15.996770 16.627775 43.571011 3.093102 15.203571 -113.589905 0.000000 0.009282 11.569106 9.072443 0.424885 -0.644467 -0.000000 -0.016864 9.269636 3.888149 0.056442 0.068206 0.000000 -0.000002 8.374488 3.888150 0.056442 0.068207 0.000000 0.000002 8.374485 2.916119 0.041899 0.051511 -0.000000 -0.000003 12.152559 18.346617 -0.089674 -1.433463 -0.000000 -0.040100 7.802316 -2.103054 0.308426 -2.646770 -2.894405 0.000001 6.791380 -5.226167 -6.518838 -5.112012 -13.574682 0.000003 0.000001 31.974229 -35.565417 15.218218 -23.923906 -0.000004 -0.000001 59.845018 7.439340 64.469452 -19.846724 -0.012764 0.000003 -56.323475 33.693388 94.552822 2.894406 0.000000 6.791379 -5.104990 9.399238 -4.291375 13.574677 0.000001 -0.000003 23.879550 39.348098 -7.242611 23.923903 -0.000004 -0.000006 60.655761 7.267909 -60.565432 19.846718 -0.012771 0.000002 -34.875103 -31.286658 -93.630521 -9.469263 -0.004642 0.045490 -44.014886 13.441339 -9.460930 -0.000248 -0.007648 -40.477375 150.049503 5.349476 5.362232 -0.000591 -0.049217 -35.223610 12.485555 -10.752356 12.935248 0.000004 -12.539539 -6.151366 0.402916 -0.080424 -0.074720 9.469263 -0.004642 0.045489 -36.567754 4.378823 2.847136 0.000042 -0.006910 -40.476509 125.870387 0.255375 -0.969823 -0.001143 -0.049496 -35.223289 29.783566 -22.348700 27.444947 -0.000040 -12.539532 -6.151403 -0.448224 -0.582674 0.842251 
-16.032148 16.597315 43.531380 3.287852 15.315521 -113.635210 0.000001 0.009283 11.569099 8.927924 0.295934 -0.710764 -0.000002 -0.016864 9.269640 3.816907 0.022656 0.042266 -0.000000 0.000000 8.374497 3.816909 0.022657 0.042271 -0.000001 0.000001 8.374492 2.862683 0.016729 0.031838 -0.000001 -0.000003 12.152554 18.419688 -0.107716 -1.411440 0.000000 -0.040094 7.802320 -1.968038 0.266801 -2.612581 -2.894405 -0.000001 6.791382 -5.199035 -6.441259 -5.166027 -13.574683 -0.000001 -0.000004 31.979297 -35.527874 15.234845 -23.923889 0.000003 0.000001 59.896791 7.402567 64.492804 -19.846712 -0.012762 0.000008 -56.316870 33.678464 94.534148 2.894404 0.000000 6.791375 -5.059910 9.432223 -4.288011 13.574682 0.000001 -0.000012 24.082817 39.369108 -7.440364 23.923901 -0.000003 -0.000004 60.746029 7.423792 -60.424505 19.846714 -0.012766 -0.000001 -35.015737 -31.283093 -93.643492 -9.469263 -0.004642 0.045479 -43.821715 13.404647 -9.598529 -0.000238 -0.007664 -40.477367 150.063327 5.370418 5.294103 -0.000579 -0.049217 -35.223606 12.519399 -10.659163 12.812159 0.000004 -12.539535 -6.151365 0.366021 -0.081498 -0.077499 9.469265 -0.004643 0.045481 -36.421376 4.312607 2.821316 0.000046 -0.006910 -40.476517 126.004341 0.226523 -0.992215 -0.001137 -0.049496 -35.223301 29.739846 -22.260521 27.389603 -0.000037 -12.539530 -6.151402 -0.444054 -0.550534 0.799506 
-16.061859 16.574635 43.485886 3.475705 15.423610 -113.652312 -0.000002 0.009281 11.569106 8.802249 0.180463 -0.801140 0.000000 -0.016864 9.269644 3.741633 -0.005462 0.020369 0.000000 -0.000001 8.374488 3.741634 -0.005462 0.020362 -0.000000 0.000001 8.374484 2.806225 -0.004221 0.015239 0.000001 -0.000002 12.152565 18.478334 -0.150022 -1.398296 0.000002 -0.040098 7.802327 -1.860087 0.184103 -2.602502 -2.894401 0.000000 6.791380 -5.182795 -6.365153 -5.216378 -13.574684 0.000003 0.000002 32.037357 -35.515631 15.255207 -23.923897 0.000000 -0.000007 59.930395 7.377383 64.495475 -19.846727 -0.012763 0.000002 -56.306181 33.663530 94.510052 2.894406 0.000000 6.791382 -5.042055 9.484279 -4.287064 13.574683 0.000003 0.000004 24.280518 39.381720 -7.577848 23.923895 -0.000003 -0.000004 60.843182 7.592777 -60.289281 19.846718 -0.012767 0.000004 -35.146965 -31.280470 -93.674016 -9.469265 -0.004643 0.045485 -43.641115 13.384410 -9.758618 -0.000240 -0.007661 -40.477375 150.080717 5.388325 5.240510 -0.000579 -0.049223 -35.223598 12.541602 -10.585137 12.706770 0.000003 -12.539533 -6.151361 0.346166 -0.062145 -0.116393 9.469262 -0.004641 0.045485 -36.282528 4.268833 2.763948 0.000043 -0.006917 -40.476513 126.142556 0.203162 -1.018933 -0.001138 -0.049498 -35.223289 29.711880 -22.200823 27.354604 -0.000033 -12.539532 -6.151404 -0.444057 -0.505725 0.742428 
-16.077028 16.555851 43.431301 3.630985 15.483513 -113.693054 0.000001 0.009285 11.569101 8.650838 0.090488 -0.851858 0.000001 -0.016866 9.269637 3.667352 -0.026384 0.002219 0.000000 -0.000000 8.374495 3.667353 -0.026384 0.002219 -0.000001 0.000000 8.374484 2.750515 -0.019802 0.001504 0.000001 -0.000003 12.152565 18.512668 -0.212811 -1.393262 0.000003 -0.040101 7.802328 -1.797576 0.067139 -2.613844 -2.894402 -0.000000 6.791378 -5.181404 -6.309508 -5.261366 -13.574686 0.000000 -0.000005 32.111492 -35.512520 15.264836 -23.923901 -0.000001 0.000007 59.965024 7.354612 64.476392 -19.846716 -0.012760 0.000012 -56.312430 33.646209 94.502723 2.894407 0.000001 6.791382 -5.043824 9.540576 -4.302196 13.574686 -0.000001 -0.000004 24.433033 39.403245 -7.640009 23.923895 -0.000001 0.000002 60.950682 7.744923 -60.161782 19.846725 -0.012766 0.000002 -35.273371 -31.262650 -93.724518 -9.469263 -0.004639 0.045480 -43.535680 13.342284 -9.903784 -0.000239 -0.007660 -40.477367 150.105537 5.406917 5.180733 -0.000572 -0.049212 -35.223602 12.571720 -10.500261 12.582877 0.000006 -12.539532 -6.151358 0.319685 -0.048083 -0.139292 9.469263 -0.004640 0.045481 -36.222525 4.211442 2.729610 0.000047 -0.006918 -40.476521 126.289665 0.172747 -1.036041 -0.001139 -0.049491 -35.223301 29.688223 -22.140540 27.308729 -0.000033 -12.539532 -6.151403 -0.438484 -0.464527 0.690260 
-16.083427 16.542412 43.369869 3.766167 15.534794 -113.726837 0.000000 0.009283 11.569107 8.506841 0.025774 -0.898442 -0.000000 -0.016864 9.269640 3.595518 -0.039254 -0.013175 -0.000000 -0.000000 8.374492 3.595520 -0.039254 -0.013181 -0.000001 0.000002 8.374479 2.696641 -0.029365 -0.010121 -0.000000 -0.000003 12.152536 18.522968 -0.291055 -1.391523 -0.000001 -0.040102 7.802311 -1.779962 -0.076502 -2.636237 -2.894404 -0.000002 6.791367 -5.154183 -6.268504 -5.314041 -13.574684 0.000001 -0.000003 32.169737 -35.512329 15.286301 -23.923903 -0.000005 -0.000006 60.009926 7.317148 64.445943 -19.846708 -0.012765 0.000001 -56.325090 33.625315 94.504854 2.894404 -0.000001 6.791354 -5.035630 9.587514 -4.327347 13.574683 -0.000001 -0.000000 24.529979 39.436027 -7.653058 23.923897 -0.000005 -0.000005 61.056304 7.875926 -60.037144 19.846712 -0.012769 0.000000 -35.397353 -31.223137 -93.789159 -9.469262 -0.004640 0.045486 -43.453609 13.305512 -10.049283 -0.000231 -0.007662 -40.477383 150.133828 5.424781 5.108298 -0.000566 -0.049211 -35.223595 12.602244 -10.419261 12.479369 0.000008 -12.539533 -6.151370 0.299006 -0.027629 -0.171999 9.469262 -0.004639 0.045482 -36.187445 4.162024 2.695144 0.000047 -0.006923 -40.476524 126.441992 0.143718 -1.044597 -0.001131 -0.049492 -35.223278 29.669075 -22.083405 27.259830 -0.000030 -12.539531 -6.151401 -0.431444 -0.427649 0.644373 
